<?xml version="1.0" ?><!-- Uploaded to: SVG Repo, www.svgrepo.com, Generator: SVG Repo Mixer Tools -->
<svg fill="#000000" width="800px" height="800px" viewBox="0 0 96 96" data-name="Your Icons" id="Your_Icons" xmlns="http://www.w3.org/2000/svg"><title/><path d="M69,92H52V87c0-.55-1.05-15.48,10.21-23.81a23.34,23.34,0,0,0,3.87-3.48l12.94-15a5,5,0,0,1,3-1.68V20a5,5,0,0,1,4.76-5,4.87,4.87,0,0,1,3.59,1.36A5.37,5.37,0,0,1,92,20.23v30a28.7,28.7,0,0,0,.33,4.3c.44,3,.6,8.78-3.37,13.2C83.46,73.88,78.8,78.61,73.87,83.61L71.7,85.79,69,87.54ZM54,90H67V86.46l3.48-2.28,1.94-2c4.91-5,9.55-9.7,15-15.83,3.43-3.81,3.27-8.88,2.88-11.57A31.15,31.15,0,0,1,90,50.22v-30a3.33,3.33,0,0,0-1-2.41A2.88,2.88,0,0,0,86.89,17,3,3,0,0,0,84,20V43.16a5,5,0,0,1,2,1.06h0l0,0a4.92,4.92,0,0,1,1.72,3.4c0,.13,0,.25,0,.38a5,5,0,0,1-1.22,3.27L73.28,66.7a1,1,0,0,1-1.51-1.31L85.1,50A2.93,2.93,0,0,0,85.83,48V47.8a3,3,0,0,0-1-2A2.88,2.88,0,0,0,83,45H82.8a3,3,0,0,0-2.24,1L67.62,61a25.54,25.54,0,0,1-4.19,3.78C53.07,72.46,54,86.78,54,86.92Z"/><path d="M44.54,92h-17V87.54l-2.83-1.89-2-2c-4.93-5-9.59-9.73-15.12-15.89-4-4.42-3.82-10.17-3.37-13.2a30.05,30.05,0,0,0,.32-4.3v-30A5.38,5.38,0,0,1,6.2,16.37,4.86,4.86,0,0,1,9.78,15a4.93,4.93,0,0,1,3.29,1.45A5,5,0,0,1,14.54,20V43.08a5,5,0,0,1,3,1.68l12.94,15a23.34,23.34,0,0,0,3.87,3.48c11.26,8.33,10.25,23.26,10.2,23.89Zm-15-2h13V87c0-.22,1-14.54-9.39-22.2A25.14,25.14,0,0,1,29,61L16,46.06a3,3,0,0,0-2.25-1h-.18a2.93,2.93,0,0,0-1.8.72,3,3,0,0,0-1,2c0,.08,0,.15,0,.23A2.94,2.94,0,0,0,11.48,50L24.81,65.39A1,1,0,0,1,23.3,66.7L10,51.3A5,5,0,0,1,8.74,48c0-.13,0-.25,0-.38a5,5,0,0,1,1.72-3.41,4.85,4.85,0,0,1,2.06-1.07V20a3,3,0,0,0-.88-2.13,3,3,0,0,0-2-.87,2.84,2.84,0,0,0-2.11.82,3.34,3.34,0,0,0-1,2.41v30a31.13,31.13,0,0,1-.34,4.59c-.4,2.69-.55,7.76,2.88,11.57,5.5,6.13,10.14,10.84,15.05,15.83l1.94,2,3.47,2.28Z"/><path d="M58.78,58.86h-.06a1,1,0,0,1-.94-.92c-.06-.08-.48-.5-2.18-.5-4.69,0-8.12-.1-9.39-1.38-1.08-1.07-.48-2.81.1-4.49A10.57,10.57,0,0,0,47,49a10.11,10.11,0,0,0-2.41-.31c-2.41-.15-5.41-.33-6.22-2.76-.29-.88-1.1-1-3.37-.77-1.76.14-3.75.31-5.07-1A5.24,5.24,0,0,1,28,39.75a3.59,3.59,0,0,1,2.14-2.66c1.25-.63,3,0,4.94.79,2.45.93,5.23,2,6.74.48,2.62-2.61,2-4.13,0-6.18a1.78,1.78,0,0,0-2-.57,2.67,2.67,0,0,0-1,.57l-.51.51-5.13-2.57L33.18,30a14.87,14.87,0,0,1-2.05-2.64c-1.66-2.76-1-4.38-.16-5.26-.67-.54-3.32-1.27-5.9-1.59a1,1,0,0,1-.86-1.12,1,1,0,0,1,1.11-.86c2.58.32,7,1.14,7.65,3a1.8,1.8,0,0,1-.55,1.93c-1.16,1.16,1.19,4.07,2.06,5l3.62,1.81a5.1,5.1,0,0,1,1.17-.58,3.79,3.79,0,0,1,4,1.05c2.09,2.1,4,5,0,9-2.43,2.43-6,1.06-8.88,0-1.21-.46-2.86-1.09-3.33-.86A1.72,1.72,0,0,0,30,40.07a3.52,3.52,0,0,0,1.32,2.64c.66.66,2.1.54,3.5.42,2-.17,4.59-.38,5.43,2.14.38,1.14,2.63,1.28,4.44,1.39,2,.12,4.3.26,4.3,2.18a11,11,0,0,1-.8,3.38,6.79,6.79,0,0,0-.57,2.45c.78.77,5.64.77,8,.77a4.85,4.85,0,0,1,3.61,1.1,1.91,1.91,0,0,1,.57,1.38A1,1,0,0,1,58.78,58.86Zm-1-1Zm0,0Zm0,0ZM31.09,22.25h0Zm0-.26Z"/><path d="M57.09,35.47c-1.36,0-2.56-1.28-3.36-2.29-4.34-5.79-9.18-10.73-10.49-10.73h0a3.3,3.3,0,0,1-3.72.67,5.73,5.73,0,0,1-3.37-4.68c0-1.6,1.83-2.5,3.59-3.37a9.29,9.29,0,0,0,2.19-1.29l-.06-.06A2.88,2.88,0,0,1,41,11.57C41.09,9,44.3,6,44.67,5.65A1,1,0,1,1,46,7.13c-1.14,1-3,3.16-3,4.49a.86.86,0,0,0,.26.69,2,2,0,0,1,.66,1.76c-.21,1.27-1.72,2-3.32,2.8-.77.38-2.37,1.17-2.48,1.58a3.74,3.74,0,0,0,2.14,2.82A1.3,1.3,0,0,0,41.86,21a1.88,1.88,0,0,1,1.5-.53c3.35.24,10.54,9.62,12,11.5,1.27,1.58,1.79,1.51,1.8,1.51.43-.06,1-1.68,1.38-2.55a9.91,9.91,0,0,1,1.83-3.41c.45-.45.39-.7.38-.8-.13-.59-1.14-1.92-6.56-4.08-3.39-1.36-3.79-2.63-3.34-4.37.16-.61.22-.81-.25-1.28-1.3-1.3-1.26-2.33-1-3,.56-1.35,2.54-2,6.05-2a3.73,3.73,0,0,0,4-3,1,1,0,0,1,2,.33,5.77,5.77,0,0,1-6,4.65c-3.09,0-4.09.57-4.2.77h0s0,.26.56.78a3,3,0,0,1,.78,3.21c-.17.64-.27,1,2.14,2,5.07,2,7.39,3.68,7.77,5.54a2.76,2.76,0,0,1-.92,2.61,8.69,8.69,0,0,0-1.37,2.72c-.68,1.75-1.38,3.57-3,3.81A1.67,1.67,0,0,1,57.09,35.47Z"/><path d="M67.41,53a1,1,0,0,1-.81-.42,54.54,54.54,0,0,1-3.21-5.46c-.13-.27-.31-.33-1.8,0a9.4,9.4,0,0,1-6.44-.59,2.83,2.83,0,0,1-1.6-3.84c1.1-2.65,6-5.48,8.88-4.51,2.33.77,3.05-.42,4.22-2.76s4.67-2.15,7.47-2l1.06.06a1,1,0,0,1,.95,1,1,1,0,0,1-1,1L74,35.39c-2-.12-5-.31-5.55.87-1.08,2.16-2.56,5.12-6.64,3.76-1.69-.56-5.64,1.53-6.41,3.39-.16.4-.25.83.65,1.28a7.49,7.49,0,0,0,5.19.41c1.38-.26,3.1-.57,4,1.12a53.73,53.73,0,0,0,3,5.19A1,1,0,0,1,67.41,53Z"/><path d="M48.29,61A27.88,27.88,0,1,1,76.17,33.11,27.92,27.92,0,0,1,48.29,61Zm0-53.76A25.88,25.88,0,1,0,74.17,33.11,25.91,25.91,0,0,0,48.29,7.23Z"/></svg>